<?xml version="1.0" encoding="UTF-8"?>
<svg id="Capa_1" data-name="Capa 1" xmlns="http://www.w3.org/2000/svg" version="1.1" viewBox="0 0 150 150">
  <defs>
    <style>
      .cls-1 {
        stroke-width: 2px;
      }

      .cls-1, .cls-2, .cls-3, .cls-4 {
        fill: #fff;
        stroke: #fff;
      }

      .cls-1, .cls-4 {
        stroke-miterlimit: 10;
      }

      .cls-2 {
        stroke-linecap: round;
        stroke-linejoin: round;
      }
    </style>
  </defs>
  <g>
    <path class="cls-3" d="M64.66,139.16c-.34,1.09-.81,2.02-1.4,2.81-.59.78-1.28,1.43-2.06,1.95s-1.61.93-2.49,1.23c-.88.31-1.79.52-2.72.64-.94.12-1.84.19-2.72.19h-10.45v-.29c.48-.06.94-.18,1.39-.37.45-.19.79-.42,1.02-.69.1-.1.17-.26.21-.49s.09-.49.13-.77c.04-.29.07-.59.09-.92.02-.32.03-.64.03-.95,0-.27,0-.63.01-1.09,0-.46.02-.96.03-1.5,0-.54.01-1.1.01-1.68v-8.28c0-.34-.01-.66-.04-.96-.03-.3-.07-.56-.13-.8s-.14-.42-.26-.56c-.29-.34-.63-.58-1.03-.72-.4-.13-.85-.23-1.35-.29v-.29c.8,0,1.96,0,3.46-.01,1.51,0,3.33-.01,5.47-.01h1.83c.63,0,1.26.03,1.89.09s1.26.15,1.89.29c.63.13,1.25.33,1.86.6.8.34,1.56.78,2.26,1.32.71.53,1.32,1.17,1.85,1.9.52.74.95,1.58,1.26,2.55s.47,2.07.47,3.31c0,1.43-.17,2.69-.52,3.78ZM61.14,132.2c-.34-1.05-.82-2-1.43-2.85-.61-.85-1.34-1.57-2.18-2.16-.84-.59-1.76-.97-2.75-1.15-.38-.08-.8-.14-1.26-.19-.46-.05-1.02-.07-1.69-.07-.23,0-.48,0-.74.01s-.53.03-.79.06c-.26.03-.5.05-.72.07-.22.02-.4.05-.53.09-.1.94-.15,2.22-.17,3.87-.02,1.64-.03,3.6-.03,5.87v3.35c0,.99,0,1.8.03,2.43,0,.27.01.56.04.87.03.32.06.62.1.92.04.3.1.56.19.8.09.24.19.42.3.53.38.38.86.63,1.45.73.58.11,1.13.16,1.65.16.48,0,.97-.02,1.47-.07.51-.05.98-.14,1.42-.27,2.06-.59,3.6-1.74,4.62-3.45,1.02-1.71,1.53-3.81,1.53-6.31,0-1.11-.17-2.19-.52-3.24Z"/>
    <path class="cls-3" d="M76.18,134.7c-.25.28-.53.41-.86.41-.31,0-.55-.05-.73-.16-.18-.1-.34-.22-.47-.36-.13-.13-.28-.25-.43-.36-.15-.1-.36-.16-.63-.16-.23,0-.45.08-.67.24-.22.16-.43.37-.62.62-.19.25-.36.53-.52.84-.15.32-.29.62-.4.9v8.25c.06.17.18.31.37.4.19.1.41.16.64.2.24.04.49.06.74.07.26,0,.48.03.67.07v.29h-6.41v-.29c.44-.04.82-.12,1.13-.26.32-.13.47-.35.47-.66v-9.68c0-.15-.01-.27-.04-.34s-.11-.16-.24-.26c-.17-.1-.37-.21-.6-.36-.23-.14-.46-.26-.69-.36v-.17l3.75-1.46h.17l-.06,3.98h.06c.1-.23.25-.56.46-1,.21-.44.48-.88.8-1.33.32-.45.72-.83,1.17-1.16.46-.32.98-.49,1.58-.49.48,0,.88.14,1.22.43s.5.65.5,1.09-.12.77-.37,1.05Z"/>
    <path class="cls-3" d="M88.15,143.04c-.27.53-.63,1.01-1.09,1.45-.46.44-1.01.8-1.65,1.09s-1.35.43-2.13.43c-.97,0-1.86-.18-2.66-.54-.8-.36-1.48-.87-2.05-1.53s-1-1.43-1.3-2.32c-.31-.89-.46-1.83-.46-2.82,0-.8.14-1.6.43-2.39.29-.79.69-1.5,1.22-2.13.52-.63,1.16-1.14,1.92-1.53.75-.39,1.59-.59,2.51-.59.74,0,1.45.1,2.1.29.66.19,1.23.48,1.72.87.49.39.88.88,1.19,1.48.31.59.49,1.29.54,2.09h-9.19c0,.15,0,.33-.03.53-.02.2-.03.41-.03.62,0,.8.11,1.57.34,2.31.23.74.56,1.38,1,1.95.44.56.99,1.01,1.66,1.33.67.32,1.44.49,2.32.49.95,0,1.79-.24,2.51-.73.72-.49,1.19-1.08,1.42-1.79l.23.06c-.08.42-.25.89-.52,1.42ZM84.87,133.39c-.49-.51-1.14-.76-1.96-.76-.53,0-1.02.16-1.45.47-.43.32-.8.68-1.12,1.1-.32.42-.56.85-.73,1.27-.17.43-.28.76-.32.99h1.17c.34,0,.68,0,1.02-.01.33,0,.68-.02,1.05-.03.36,0,.76-.01,1.2-.01.29,0,.55,0,.8-.03.25-.02.47-.07.66-.14.13-.15.23-.3.3-.43.07-.13.1-.33.1-.6,0-.71-.24-1.31-.73-1.82Z"/>
    <path class="cls-3" d="M101.78,144.22c-.15.34-.35.65-.6.93-.25.28-.54.49-.87.63-.33.14-.7.21-1.1.21-.65,0-1.23-.19-1.73-.57-.51-.38-.76-1.05-.76-2l-.06-.03c-.15.25-.36.53-.62.83-.26.31-.56.59-.92.86-.35.27-.74.48-1.17.64-.43.16-.9.24-1.42.24-.31,0-.62-.04-.93-.13-.32-.09-.6-.24-.86-.46-.26-.22-.47-.5-.63-.84-.16-.34-.24-.76-.24-1.26,0-.53.21-1.05.64-1.55.43-.5.96-.95,1.59-1.35.63-.4,1.19-.74,1.68-1.03s.91-.53,1.27-.73c.36-.2.68-.37.96-.52.28-.14.51-.27.7-.39v-2.95s-.03-.13-.1-.27c-.07-.14-.18-.29-.34-.44-.16-.15-.39-.29-.67-.42-.29-.12-.66-.19-1.12-.19-.31,0-.61.05-.9.16-.3.11-.56.24-.79.4-.23.16-.41.32-.54.49-.13.16-.2.3-.2.42v1.29c0,.27-.14.51-.42.72-.28.21-.58.32-.9.32-.31,0-.57-.11-.79-.33-.22-.22-.33-.47-.33-.76,0-.23.06-.44.17-.63.11-.19.26-.36.43-.52.17-.15.36-.29.56-.4s.38-.22.53-.32c.5-.29,1-.56,1.52-.83.52-.27,1.01-.5,1.47-.69.47-.19.9-.34,1.29-.46.39-.11.71-.17.96-.17.5,0,.96.13,1.4.39.44.26.75.58.95.96.08.13.12.37.14.7s.03.66.03.99c0,.69,0,1.31-.01,1.86s-.01,1.09-.01,1.6,0,1.05-.01,1.59-.01,1.14-.01,1.79c0,.86.15,1.43.44,1.7.3.28.63.41,1.02.41.44,0,.76-.09.97-.27.21-.18.35-.42.43-.7h.17c-.02.36-.11.72-.26,1.06ZM96.71,138.18c-.34.25-.77.51-1.29.79-.52.28-1.02.58-1.5.9-.49.33-.91.68-1.26,1.07-.35.39-.53.84-.53,1.33s.17.95.52,1.35.79.6,1.35.6c.5,0,.94-.06,1.32-.17.38-.11.73-.33,1.06-.66.23-.21.34-.48.34-.8v-4.41Z"/>
    <path class="cls-3" d="M118.3,145.97v-.32c.52-.04.91-.1,1.17-.19.27-.09.4-.28.4-.59v-7.3c0-1.11-.2-1.99-.59-2.65-.39-.66-1.09-.99-2.09-.99-.63,0-1.16.17-1.58.5-.42.33-.86.76-1.32,1.27v9.25c0,.13.05.25.14.34.1.1.22.17.37.21.15.05.32.09.5.11.18.03.36.05.53.07v.26h-5.61v-.32c.52-.04.93-.1,1.23-.19.3-.09.46-.28.46-.59v-7.33c0-1.13-.2-2.01-.59-2.65-.39-.64-1.08-.96-2.08-.96-.63,0-1.15.13-1.55.4-.4.27-.85.67-1.35,1.2v9.39c.04.19.1.33.2.42.1.09.21.15.36.19.14.04.3.06.47.07.17,0,.35.03.54.07v.29h-5.56v-.29c.44-.04.82-.12,1.13-.26.32-.13.47-.35.47-.66v-9.79c0-.15-.01-.27-.04-.34-.03-.08-.11-.16-.24-.26-.17-.1-.37-.2-.6-.33-.23-.12-.46-.23-.69-.33v-.23l3.75-1.35h.17v3.09l.06.03c.19-.34.44-.7.74-1.07.3-.37.66-.71,1.06-1,.4-.3.83-.54,1.3-.74.47-.2.96-.3,1.47-.3.91,0,1.65.3,2.21.9s.91,1.41,1.04,2.42h.09c.17-.34.41-.71.72-1.1.31-.39.66-.75,1.06-1.09.4-.33.84-.61,1.33-.82.49-.21.99-.32,1.5-.32,1.11,0,1.94.4,2.51,1.2.56.8.85,1.83.85,3.09v8.53c0,.13.06.25.17.34.11.1.25.17.42.21.16.05.34.09.53.11.19.03.37.05.54.07v.26h-5.61Z"/>
  </g>
  <g>
    <path class="cls-4" d="M39.66,30.57c-7.6,0-13.78-6.18-13.78-13.78s6.18-13.78,13.78-13.78,13.78,6.18,13.78,13.78-6.18,13.78-13.78,13.78ZM39.66,3.38c-7.39,0-13.4,6.01-13.4,13.41s6.01,13.41,13.4,13.41,13.41-6.01,13.41-13.41-6.01-13.41-13.41-13.41Z"/>
    <path class="cls-2" d="M28.97,25l-.36-.11c.25-.82.52-2.11.34-2.42-.29-.51.15-2.13.32-2.71-.44-.25-1.74-1.09-1.5-2.02.17-.65-1.26-1.43-1.77-1.65l.15-.35c.23.1,2.27,1.01,1.99,2.1-.17.67.98,1.43,1.45,1.66l.14.07-.05.15c-.27.88-.57,2.25-.39,2.56.31.56-.2,2.36-.31,2.72Z"/>
    <path class="cls-2" d="M37.92,30.38l-.28-.26.29-.32.52-.76.34-.98-.64-1.06.65-1.14c-.2-.19-.77-.63-1.83-.73-.37-.04-.67-.2-.88-.48-.46-.62-.37-1.65-.31-2.04-.4-.17-1.16-.47-1.5-.47h-.07c-.67,0-.97-.22-1.12-2.47-.06-.85-.28-1.43-.65-1.68-.28-.19-.56-.14-.63-.12l-1.44.82c-.09.05-.54.29-.84.12-.11-.06-.23-.2-.23-.49,0-.58.27-1.45.37-1.75-.32-.38-1.06-1.3-1-1.75.02-.11.07-.19.15-.25.23-.15.59-.94.78-1.45v-.03s.04-.03.04-.03c.19-.21,1.15-1.25,1.76-1.08.15.04.34.17.41.55.14.79.54,1.18.73,1.29.04-.37.12-1.31.15-1.69v-.09s1.51-.97,1.51-.97l2.36-1.34.1.13s.42.52.87.55c.18.01.35.1.48.21-.13-.61-.04-1.04.57-1.43.41-.26.29-.53.27-.59l-.02-.03v-.04c-.05-.4-.13-1.36.09-1.64.16-.2,1.83-1.24,2.58-1.36,0-.4-.08-1-.34-1.1-.16-.06-.23-.16-.21-.28.04-.19.27-.19.4-.18.02,0,1.51.07,1.61.76.09.6,0,1.47,0,1.5,0,.18,0,.38.02.51.27-.26.65-.61.67-.63l.04-.03,1.05-.26s.78-.13,1.09-.13,1.4.43,1.61.51l.04.02,1.05.79.33,1-.35.88-.06.42.97.18-.36.87.31,1.42-.12.07s-1.35.75-1.24,1.99c.02.25.09.41.18.44.17.06.54-.21.78-.46,0-.38.16-1,.77-1.15.12-.03.48-.12.67.1.12.14.09.32.07.41l.02,1v.03c-.06.15-.09.33-.09.43.3-.16.58-.7.66-.89l.12-.28.2.24c1.03,1.22.89,1.36.78,1.47-.12.12-1.85,1.42-2.28,1.75-.32.57-.65,1.26-.66,1.47.23.2.65.69.7.74l.06.07-.34,1.56.53.86-.16,4.23h-.38s.15-4.12.15-4.12l-.55-.89.33-1.53c-.17-.19-.48-.54-.62-.65-.1-.08-.33-.27.62-1.95l.02-.03.03-.02c.74-.56,1.91-1.44,2.21-1.68-.07-.15-.3-.47-.55-.78-.15.27-.41.67-.74.82-.21.1-.34.03-.4-.02-.2-.17-.11-.59-.03-.84l-.02-1.01v-.04s.03-.05.02-.06c0,0-.02,0-.07,0-.04,0-.11,0-.22.03-.52.13-.48.84-.48.85v.08s-.05.06-.05.06c-.12.13-.74.78-1.23.62-.25-.08-.4-.34-.43-.77-.11-1.25.94-2.04,1.31-2.28l-.28-1.26.23-.55-.86-.16.12-.85.31-.77-.25-.75-.93-.7c-.51-.2-1.28-.48-1.45-.48-.23,0-.81.09-1.01.12l-.94.24c-.12.12-.54.51-.75.71-.13.13-.25.09-.3.07-.08-.03-.27-.12-.23-1.01,0-.02.08-.87,0-1.43,0-.04-.05-.09-.12-.14-.2-.14-.55-.22-.82-.26.28.46.24,1.24.24,1.35l-.02.24-.23-.08c-.2-.04-2.1.85-2.41,1.23-.08.11-.08.72-.02,1.33.1.23.13.69-.42,1.05-.47.3-.54.56-.34,1.29.06.23.11.41-.04.5-.15.08-.26-.03-.37-.15-.13-.13-.33-.35-.53-.36-.46-.04-.84-.38-1.03-.57l-2.07,1.18-1.33.87c-.03.35-.12,1.53-.16,1.75-.02.13-.13.22-.27.22h0c-.38,0-1.01-.62-1.18-1.64-.02-.1-.06-.23-.14-.25-.27-.08-.95.51-1.35.94-.1.29-.5,1.32-.9,1.59-.02.19.43.88.98,1.52l.07.08-.04.1s-.39,1.1-.39,1.73c0,.08.02.14.04.16.08.04.31-.02.46-.12l1.49-.85s.5-.16.97.15c.48.32.75.98.82,1.97.15,2.12.4,2.12.74,2.12h.07c.52,0,1.66.5,1.78.56l.14.06-.03.15s-.24,1.27.22,1.89c.15.2.35.31.61.33,1.52.15,2.15.93,2.17.96l.08.1-.68,1.18.61,1.02-.43,1.21-.56.81-.3.33Z"/>
  </g>
  <rect class="cls-1" x="34" y="43.71" width=".57" height="39.17"/>
  <rect class="cls-1" x="37.63" y="43.54" width=".57" height="33.92"/>
  <rect class="cls-1" x="40.88" y="43.71" width=".57" height="27.32"/>
  <rect class="cls-1" x="44.13" y="43.54" width=".57" height="22.23"/>
  <polygon class="cls-1" points="53.46 96.57 27.31 96.57 27.31 90.69 49.89 90.69 49.89 85.75 31.12 85.75 31.12 43.45 31.69 43.45 31.69 85.18 50.46 85.18 50.46 91.26 27.88 91.26 27.88 96.01 52.89 96.01 52.89 91.1 53.46 91.1 53.46 96.57"/>
  <polygon class="cls-1" points="47.75 57.71 47.18 57.71 47.18 43.74 28.42 43.74 28.42 37.66 51 37.66 51 32.92 25.98 32.92 25.98 37.82 25.42 37.82 25.42 32.35 51.57 32.35 51.57 38.23 28.99 38.23 28.99 43.17 47.75 43.17 47.75 57.71"/>
  <g>
    <path class="cls-3" d="M71.94,68.93h-10.46v18.1c0,2.34.5,4.04,1.51,5.09,1.01,1.06,2.32,1.58,3.92,1.58,1.33,0,2.43-.22,3.3-.65.87-.44,1.63-1.11,2.27-2.03l.41.21c-.28.69-.65,1.41-1.14,2.17-.48.76-1.12,1.45-1.93,2.06-.8.62-1.74,1.1-2.82,1.45-1.08.34-2.35.52-3.82.52-.96,0-1.89-.15-2.77-.45s-1.67-.73-2.35-1.31c-.68-.57-1.24-1.21-1.67-1.93-.43-.71-.65-1.43-.65-2.17,0-4.31.02-8.4.07-12.28.05-3.88.07-7.33.07-10.36h-5.02v-.76l9.91-9.43h.54v5.99h12.73l-2.13,4.2Z"/>
    <path class="cls-3" d="M100.84,90.22c-.64,1.26-1.51,2.42-2.61,3.47-1.1,1.06-2.42,1.93-3.96,2.61-1.54.69-3.25,1.03-5.13,1.03-2.34,0-4.47-.44-6.4-1.31-1.93-.87-3.57-2.1-4.92-3.68-1.35-1.58-2.4-3.44-3.13-5.57-.73-2.13-1.1-4.39-1.1-6.78,0-1.93.34-3.84,1.03-5.75.69-1.9,1.66-3.61,2.92-5.13,1.26-1.51,2.8-2.74,4.61-3.68,1.81-.94,3.82-1.41,6.02-1.41,1.79,0,3.47.23,5.06.69,1.58.46,2.96,1.16,4.13,2.1,1.17.94,2.12,2.12,2.86,3.54.73,1.42,1.17,3.1,1.31,5.02h-22.09c0,.37-.02.79-.07,1.27-.05.48-.07.97-.07,1.48,0,1.93.28,3.77.83,5.54s1.35,3.33,2.41,4.68c1.05,1.35,2.38,2.42,3.99,3.2,1.61.78,3.46,1.17,5.57,1.17,2.29,0,4.3-.59,6.02-1.76,1.72-1.17,2.86-2.6,3.41-4.3l.55.14c-.18,1.01-.6,2.14-1.24,3.41ZM92.96,67.03c-1.17-1.21-2.74-1.82-4.71-1.82-1.28,0-2.44.38-3.47,1.14-1.03.76-1.93,1.64-2.68,2.65-.76,1.01-1.34,2.03-1.75,3.06-.41,1.03-.67,1.82-.76,2.37h2.82c.83,0,1.64-.01,2.44-.03.8-.02,1.64-.05,2.51-.07.87-.02,1.83-.03,2.89-.03.69,0,1.33-.02,1.93-.07.6-.04,1.12-.16,1.58-.34.32-.37.56-.71.72-1.03.16-.32.24-.8.24-1.45,0-1.7-.58-3.15-1.75-4.37Z"/>
    <path class="cls-3" d="M126.57,70.2c-.6.67-1.28,1-2.06,1-.73,0-1.32-.13-1.76-.38s-.81-.54-1.14-.86c-.32-.32-.67-.61-1.03-.86-.37-.25-.87-.38-1.51-.38-.55,0-1.09.2-1.62.59-.53.39-1.02.88-1.48,1.48-.46.6-.87,1.27-1.24,2.03-.37.76-.69,1.48-.96,2.17v19.82c.14.41.44.73.89.96.46.23.97.39,1.55.48.57.09,1.17.15,1.79.17.62.02,1.16.08,1.62.17v.69h-15.41v-.69c1.05-.09,1.96-.3,2.72-.62.76-.32,1.13-.85,1.13-1.58v-23.26c0-.37-.03-.64-.1-.83-.07-.18-.26-.39-.58-.62-.41-.23-.89-.52-1.44-.86-.55-.34-1.1-.63-1.65-.86v-.41l9.01-3.51h.41l-.14,9.56h.14c.23-.55.59-1.35,1.1-2.41.5-1.05,1.15-2.12,1.93-3.2.78-1.08,1.72-2.01,2.82-2.79,1.1-.78,2.36-1.17,3.78-1.17,1.15,0,2.12.34,2.92,1.03.8.69,1.2,1.56,1.2,2.61s-.3,1.85-.9,2.51Z"/>
  </g>
  <g>
    <path class="cls-3" d="M42.73,122.03v-.33c.85-.04,1.56-.22,2.14-.53.57-.32.96-.68,1.16-1.1.12-.26.21-.58.27-.96.06-.39.1-.78.12-1.17.04-1.31.06-2.55.06-3.74v-12.08c-.65,1.46-1.25,2.81-1.8,4.04-.54,1.23-1.08,2.42-1.62,3.59-.53,1.17-1.07,2.36-1.62,3.58s-1.14,2.56-1.8,4.02c-.1.2-.24.51-.42.94-.18.43-.36.86-.53,1.31-.18.44-.35.85-.5,1.22-.16.37-.26.61-.3.73h-.18c-.63-1.46-1.26-2.92-1.88-4.36-.62-1.44-1.23-2.84-1.83-4.17-.59-1.34-1.15-2.59-1.66-3.75-.51-1.17-.98-2.21-1.4-3.12-.42-.91-.76-1.67-1.02-2.29-.27-.61-.45-1.03-.55-1.25,0,1.31,0,2.46-.01,3.46-.01,1-.02,1.99-.03,2.97-.01.98-.01,2.01-.01,3.1v3.8c0,.93.03,1.74.09,2.42.06.68.21,1.26.45,1.72.24.47.6.83,1.08,1.1.48.27,1.15.46,2,.58v.3h-7.75v-.3c.69-.14,1.26-.34,1.69-.61.44-.27.78-.64,1.04-1.11.26-.48.45-1.06.56-1.77.12-.7.19-1.56.21-2.57.04-.85.07-1.86.09-3.01.02-1.16.03-2.4.03-3.73v-3.74c0-.4-.01-.88-.03-1.45-.02-.55-.14-1-.36-1.35-.22-.35-.47-.62-.77-.82s-.61-.34-.95-.43-.62-.15-.86-.19v-.3h6.32l7.09,16.15c.87-1.88,1.72-3.75,2.55-5.61s1.58-3.54,2.24-5.05c.66-1.5,1.21-2.76,1.63-3.76.43-1,.67-1.58.73-1.74h6.32v.3c-.81.02-1.43.19-1.86.5-.43.32-.72.69-.88,1.13-.12.34-.2.86-.24,1.57s-.07,1.42-.09,2.11c-.02.95-.03,1.87-.03,2.76v5.91c0,1.05,0,2.16.03,3.32,0,.38.02.76.07,1.14.05.39.13.69.25.91.02.04.09.13.22.28.13.15.31.31.55.47.24.17.53.32.89.45.36.13.77.2,1.25.22v.3h-10.18Z"/>
    <path class="cls-3" d="M64.67,122.06h-.21v-3l-.03-.03c-.22.34-.49.69-.8,1.07-.32.38-.67.72-1.07,1.02-.4.31-.84.55-1.32.73-.48.18-1,.27-1.56.27-1.27,0-2.2-.38-2.8-1.13-.6-.75-.91-1.85-.91-3.29v-7.57c0-.14-.01-.28-.03-.43-.02-.15-.04-.29-.04-.42-.01-.13-.04-.22-.07-.28-.08-.18-.19-.31-.34-.39s-.31-.14-.49-.18c-.18-.04-.37-.06-.56-.07-.2,0-.39-.02-.56-.04v-.33h4.57v8.64c0,1.31.2,2.27.6,2.89s1.14.94,2.24.94c.42,0,.78-.05,1.09-.16.31-.11.59-.25.83-.42.25-.17.48-.36.69-.58.21-.22.4-.44.58-.68v-8.46c0-.2-.02-.45-.06-.76-.04-.31-.12-.54-.24-.7-.24-.1-.56-.18-.96-.24-.41-.06-.83-.11-1.26-.15v-.33h4.99v11.72c0,.16.01.28.04.36.03.08.11.17.25.27.18.1.44.23.79.39s.64.29.88.39v.18l-4.22.77Z"/>
    <path class="cls-3" d="M78.53,122.03v-.33c.53-.04.96-.1,1.28-.19s.47-.29.47-.61v-7.48c0-1.15-.22-2.07-.65-2.78-.44-.7-1.17-1.05-2.2-1.05-.65,0-1.2.14-1.63.42-.44.28-.92.68-1.45,1.22v9.74c.04.2.11.34.21.43.1.09.22.15.36.19.14.04.3.06.47.07.18,0,.37.03.56.07v.3h-5.73v-.3c.45-.04.85-.13,1.17-.27.33-.14.49-.37.49-.68v-10.21c0-.16-.01-.28-.04-.36-.03-.08-.11-.17-.25-.27-.18-.1-.39-.21-.62-.34-.24-.13-.47-.24-.71-.34v-.18l3.89-1.39h.18v3.21l.06.03c.22-.34.49-.7.81-1.08.33-.39.69-.74,1.11-1.05s.87-.58,1.36-.79,1.01-.31,1.54-.31c1.14,0,2.02.43,2.63,1.28.61.85.92,1.95.92,3.29v8.73c0,.14.06.26.19.36.13.1.28.17.46.22.18.05.37.09.58.12.21.03.4.06.58.07v.27h-6.03Z"/>
    <path class="cls-3" d="M96.28,122.12h-.18v-2.97h-.03c-.57.99-1.25,1.72-2.03,2.2-.78.47-1.76.71-2.92.71-.73,0-1.44-.14-2.12-.43-.68-.29-1.29-.73-1.83-1.34-.53-.6-.96-1.35-1.28-2.23-.32-.88-.47-1.89-.47-3.04,0-1.03.18-1.99.55-2.88.37-.89.88-1.67,1.54-2.33s1.46-1.18,2.39-1.56c.93-.38,1.96-.56,3.09-.56.59,0,1.15.05,1.68.15.52.1,1,.22,1.44.36-.02-.3-.03-.7-.04-1.22-.01-.51-.01-1.04-.01-1.57v-2.52l-2.43-.92v-.18l4.72-1.31h.24v19.26c.16.1.45.24.89.42.43.18.84.35,1.22.5v.21l-4.39,1.25ZM96.07,110.96c-.44-.81-.99-1.46-1.66-1.96-.67-.49-1.3-.74-1.87-.74-.77,0-1.43.18-1.97.53s-.99.83-1.35,1.42c-.36.59-.62,1.28-.79,2.05-.17.77-.25,1.56-.25,2.37s.1,1.6.3,2.36c.2.76.49,1.43.89,2.02.4.58.89,1.05,1.47,1.41.58.36,1.26.53,2.03.53.81,0,1.51-.28,2.09-.83.58-.55.95-1.26,1.11-2.11v-7.06Z"/>
    <path class="cls-3" d="M111.86,122.06h-.21v-3l-.03-.03c-.22.34-.48.69-.8,1.07s-.67.72-1.07,1.02c-.39.31-.84.55-1.32.73-.48.18-1,.27-1.56.27-1.27,0-2.2-.38-2.8-1.13-.6-.75-.91-1.85-.91-3.29v-7.57c0-.14-.01-.28-.03-.43-.02-.15-.04-.29-.04-.42-.01-.13-.04-.22-.07-.28-.08-.18-.19-.31-.34-.39s-.31-.14-.49-.18c-.18-.04-.37-.06-.56-.07-.2,0-.39-.02-.56-.04v-.33h4.57v8.64c0,1.31.2,2.27.6,2.89s1.14.94,2.24.94c.42,0,.78-.05,1.09-.16.31-.11.59-.25.83-.42.25-.17.48-.36.69-.58.21-.22.4-.44.58-.68v-8.46c0-.2-.02-.45-.06-.76-.04-.31-.12-.54-.24-.7-.24-.1-.56-.18-.96-.24-.41-.06-.83-.11-1.26-.15v-.33h4.99v11.72c0,.16.01.28.04.36.03.08.11.17.25.27.18.1.44.23.79.39s.64.29.88.39v.18l-4.22.77Z"/>
    <path class="cls-3" d="M127.07,119.7c-.31.56-.72,1.02-1.23,1.38-.51.36-1.1.61-1.77.77-.66.16-1.36.24-2.09.24-.87,0-1.69-.08-2.46-.24-.77-.16-1.48-.39-2.14-.68v-3.92h.24c.16.48.35.98.59,1.5.24.52.52,1.01.86,1.45.34.44.74.81,1.21,1.1.47.29,1.03.43,1.68.43.95,0,1.7-.27,2.26-.82.56-.54.84-1.38.84-2.51,0-.61-.19-1.12-.58-1.53-.38-.41-.91-.68-1.58-.82-.53-.1-1.05-.21-1.54-.33s-.94-.25-1.33-.39c-.75-.26-1.36-.7-1.82-1.34-.46-.63-.69-1.4-.69-2.29,0-.61.13-1.17.39-1.66.26-.5.6-.92,1.04-1.28s.94-.63,1.51-.82,1.19-.28,1.84-.28c.83,0,1.56.07,2.2.22.63.15,1.24.33,1.81.55l.36,3.68-.24.06c-.28-.59-.55-1.14-.83-1.65-.28-.5-.58-.94-.92-1.31-.34-.37-.72-.65-1.14-.85-.43-.2-.92-.3-1.47-.3-.34,0-.67.06-.99.18-.33.12-.61.29-.86.52-.25.23-.45.51-.61.86-.16.35-.24.75-.24,1.2,0,.73.21,1.26.62,1.57s.94.55,1.57.71c.44.1.91.2,1.42.31s.96.21,1.34.31c.89.22,1.65.67,2.27,1.37s.94,1.54.94,2.55c0,.77-.15,1.44-.46,2Z"/>
  </g>
</svg>